# xmcd
#
# Track frame offsets: 
#        150
#        16586
#        30837
#        48490
#        67431
#        83233
#        99288
#        117600
#        133717
#        149209
#        164968
#        181558
#        199338
#        215391
#        236281
#
# Disc length: 3385 seconds
#
# Revision: 0
# Processed by: cddbd v1.5.2PL0 Copyright (c) Steve Scherf et al.
# Submitted via: ExactAudioCopy v1.3
#
DISCID=d80d370f
DTITLE=Michelle Branch - Hopeless Romantic
DYEAR=2017
DGENRE=Rock
TTITLE0=Best You Ever
TTITLE1=You’re Good
TTITLE2=Fault Line
TTITLE3=Heartbreak Now
TTITLE4=Hopeless Romantic
TTITLE5=Living A Lie
TTITLE6=Knock Yourself Out
TTITLE7=Temporary Feeling
TTITLE8=Carry Me Home
TTITLE9=Not A Love Song
TTITLE10=Last Night
TTITLE11=Bad Side
TTITLE12=Shadow
TTITLE13=City
TTITLE14=Knock Yourself Out
EXTD=
EXTT0=
EXTT1=
EXTT2=
EXTT3=
EXTT4=
EXTT5=
EXTT6=
EXTT7=
EXTT8=
EXTT9=
EXTT10=
EXTT11=
EXTT12=
EXTT13=
EXTT14=
PLAYORDER=
